<?xml version="1.0" encoding="UTF-8" standalone="no"?>
<!-- Created with Inkscape (http://www.inkscape.org/) -->

<svg
   width="93.927086mm"
   height="92.604164mm"
   viewBox="0 0 93.927086 92.604164"
   version="1.1"
   id="svg49860"
   inkscape:version="1.1.2 (0a00cf5339, 2022-02-04)"
   sodipodi:docname="icon.svg"
   xmlns:inkscape="http://www.inkscape.org/namespaces/inkscape"
   xmlns:sodipodi="http://sodipodi.sourceforge.net/DTD/sodipodi-0.dtd"
   xmlns="http://www.w3.org/2000/svg"
   xmlns:svg="http://www.w3.org/2000/svg">
  <sodipodi:namedview
     id="namedview49862"
     pagecolor="#ffffff"
     bordercolor="#666666"
     borderopacity="1.0"
     inkscape:pageshadow="2"
     inkscape:pageopacity="0.0"
     inkscape:pagecheckerboard="0"
     inkscape:document-units="mm"
     showgrid="false"
     fit-margin-top="0"
     fit-margin-left="0"
     fit-margin-right="0"
     fit-margin-bottom="0"
     inkscape:zoom="0.77771465"
     inkscape:cx="568.97475"
     inkscape:cy="320.81175"
     inkscape:window-width="3742"
     inkscape:window-height="2083"
     inkscape:window-x="1148"
     inkscape:window-y="40"
     inkscape:window-maximized="1"
     inkscape:current-layer="layer1" />
  <defs
     id="defs49857" />
  <g
     inkscape:label="Layer 1"
     inkscape:groupmode="layer"
     id="layer1"
     transform="translate(-12.91275,-63.584518)">
    <g
       id="g49997"
       transform="translate(3.3072917,2.6458316)">
      <rect
         style="fill:#ffffff;fill-opacity:1;stroke:#ffffff;stroke-width:2.64583;stroke-linecap:round;stroke-linejoin:round;stroke-miterlimit:4;stroke-dasharray:none;stroke-opacity:1;paint-order:normal"
         id="rect42242-7-0"
         width="84.666672"
         height="84.666672"
         x="14.235665"
         y="64.907433"
         rx="5.2916665"
         ry="5.2916665" />
      <path
         id="path24714-6"
         style="fill:#000000;fill-opacity:1;stroke:#000000;stroke-width:1.56984;stroke-linecap:round;stroke-linejoin:round;stroke-miterlimit:4;stroke-dasharray:none;stroke-opacity:1"
         d="m 51.432373,98.642321 c 0,0 1.867358,-0.203105 4.000923,-0.05465 -1.641722,2.137839 -2.233789,3.705509 -2.233789,3.705509 0,0 -1.897098,-0.10535 -3.748299,0.0259 1.228654,-2.933191 1.981165,-3.6768 1.981165,-3.6768 z m -9.217837,21.076859 c 0,0 -11.954262,2.54781 -22.161728,8.36249 l 0.556133,1.08878 c 0,0 9.677685,-4.37388 21.492777,-3.66618 z m 4.701399,-14.14035 c 0,0 -11.676133,-0.17325 -30.75573,8.17682 l 0.207842,1.93531 c 0,0 11.992448,-4.79713 26.001324,-3.90776 z M 30.035343,86.802203 c 0,0 3.404587,0.360341 6.269778,1.193359 0,0 -4.126724,2.335632 -7.931079,7.405077 4.659065,0.930377 10.853278,3.563958 10.853278,3.563958 l 0.461363,10.822223 2.723127,-0.18097 -0.355106,18.20457 9.089213,4.2684 c 0,0 8.476544,0.56175 16.391149,1.97977 3.315652,-6.20244 10.033494,-13.85584 10.033494,-13.85584 0,0 -3.392453,-0.32406 -5.147804,-0.18093 0.991129,-2.57817 3.75412,-6.07564 3.75412,-6.07564 5.332236,-0.33789 10.607004,-0.34586 10.607004,-0.34586 2.985911,-6.79432 7.659299,-13.860709 7.659299,-13.860709 0,0 1.49532,-1.339081 2.871647,-2.805282 -3.438878,-1.681617 -5.626806,-1.933433 -5.626806,-1.933433 0,0 -8.541878,-6.904637 -18.998247,-8.97376 v -3.5e-5 c 0,0 10.353216,4.503522 13.015242,8.659858 -5.382648,-0.28072 -7.654537,0.203447 -7.654537,0.203447 0,0 8.192841,3.717674 10.648068,4.58864 -1.37608,2.536574 -4.593837,12.535934 -4.593837,12.535934 -8.449345,-0.43971 -21.03067,1.26713 -21.03067,1.26713 3.819525,-9.24438 12.825024,-18.621126 12.825024,-18.621126 0,0 -9.916089,-2.761291 -21.569997,0.375256 7.969144,1.037213 10.519445,1.51656 12.058544,2.597725 -1.941054,3.591725 -5.171122,15.336675 -5.171122,15.336675 l 0.458822,0.42924 -3.684587,9.11617 c 6.765396,-1.39092 17.273376,-1.57793 17.273376,-1.57793 l -10.644258,9.69828 c 0,0 -4.55669,-1.14863 -16.490139,-1.21625 -3.070789,-17.15518 -1.213767,-23.84132 -1.213767,-23.84132 l -5.104306,0.70998 c 0.04935,-6.929384 4.079522,-12.954482 4.079522,-12.954482 L 40.5913,92.327144 c 13.449935,-8.88153 24.388057,-7.788356 24.388057,-7.788356 0,0 -4.62788,-0.953749 -11.560775,-1.100812 -7.660216,-0.162486 -28.296093,0.193068 -28.296093,0.193068 -4.342426,4.811198 -6.356713,10.658186 -6.356713,10.658186 l 5.361142,0.373997 c 0,0 2.776157,-4.985325 5.908425,-7.861028"
         sodipodi:nodetypes="cccccccccccccccccccccccccccccccsccccccccccccccccccccsccccc" />
    </g>
  </g>
</svg>
