<?xml version="1.0" encoding="UTF-8" standalone="no"?>
<!-- Created with Inkscape (http://www.inkscape.org/) -->

<svg
   width="80"
   height="80"
   viewBox="0 0 21.166666 21.166667"
   version="1.1"
   id="svg18643"
   inkscape:version="1.2.2 (b0a8486541, 2022-12-01)"
   sodipodi:docname="run_files0.svg"
   xml:space="preserve"
   xmlns:inkscape="http://www.inkscape.org/namespaces/inkscape"
   xmlns:sodipodi="http://sodipodi.sourceforge.net/DTD/sodipodi-0.dtd"
   xmlns:xlink="http://www.w3.org/1999/xlink"
   xmlns="http://www.w3.org/2000/svg"
   xmlns:svg="http://www.w3.org/2000/svg"><sodipodi:namedview
     id="namedview18645"
     pagecolor="#ffffff"
     bordercolor="#666666"
     borderopacity="1.0"
     inkscape:showpageshadow="2"
     inkscape:pageopacity="0.0"
     inkscape:pagecheckerboard="0"
     inkscape:deskcolor="#d1d1d1"
     inkscape:document-units="mm"
     showgrid="false"
     inkscape:zoom="5.1754899"
     inkscape:cx="21.543854"
     inkscape:cy="16.520175"
     inkscape:window-width="1698"
     inkscape:window-height="1251"
     inkscape:window-x="2927"
     inkscape:window-y="272"
     inkscape:window-maximized="0"
     inkscape:current-layer="layer1"><inkscape:grid
       type="xygrid"
       id="grid20216" /></sodipodi:namedview><defs
     id="defs18640"><linearGradient
       id="linearGradientStops"><stop
         offset="0"
         style="stop-color:#0515fe"
         id="stop57129" /><stop
         offset="1"
         style="stop-color:#2cab28"
         id="stop57131" /></linearGradient><linearGradient
       id="BlueGreen"
       gradientUnits="userSpaceOnUse"
       y1="20"
       x1="0"
       y2="180"
       x2="0"
       xlink:href="#linearGradientStops"
       gradientTransform="matrix(0.02642524,0,0,0.02642524,6.7644134,12.587324)" /></defs><g
     inkscape:label="Layer 1"
     inkscape:groupmode="layer"
     id="layer1"><path
       style="fill:url(#BlueGreen);stroke-width:0.0264252"
       d="m 11.153642,12.700024 a 0.63426913,0.63426913 0 0 0 -0.624658,0.643186 v 2.253681 H 8.1634615 V 13.352088 A 0.63426913,0.63426913 0 0 0 7.5197078,12.708902 0.63426913,0.63426913 0 0 0 6.8950502,13.352088 v 5.796314 a 0.63426913,0.63426913 0 1 0 1.2684113,0 v -2.283099 h 3.6339335 v -2.858984 c 1.926566,0.18203 2.675436,1.286741 2.666574,2.291048 -0.0098,1.107645 -0.934045,2.316674 -3.33701,2.239488 a 0.63426913,0.63426913 0 1 0 -0.04073,1.267741 c 1.764384,0.05668 3.101884,-0.567554 3.878727,-1.48642 v 0.882356 a 0.63426913,0.63426913 0 1 0 1.268412,0 v -2.303437 h 2.112833 a 0.63426913,0.63426913 0 1 0 0,-1.26841 h -2.112833 v -1.651268 h 2.967164 a 0.63426913,0.63426913 0 1 0 0,-1.268412 h -7.933663 a 0.63426913,0.63426913 0 0 0 -0.113234,-0.009 z"
       id="path57137" /><g
       style="fill:#00ff00;stroke:#ffffff;stroke-width:0;stroke-dasharray:none;stroke-opacity:0;paint-order:stroke markers fill"
       id="g8045"
       transform="matrix(0.86931541,0,0,0.86931541,-3.0104312,-1.1580401)"><path
         d="M 5,4.98951 C 5,4.01835 5,3.53277 5.20249,3.2651 5.37889,3.03191 5.64852,2.88761 5.9404,2.87018 6.27544,2.85017 6.67946,3.11953 7.48752,3.65823 L 18.0031,10.6686 c 0.6677,0.4451 1.0015,0.6677 1.1178,0.9482 0.1018,0.2453 0.1018,0.5209 0,0.7662 -0.1163,0.2805 -0.4501,0.503 -1.1178,0.9482 L 7.48752,20.3415 C 6.67946,20.8802 6.27544,21.1496 5.9404,21.1296 5.64852,21.1122 5.37889,20.9679 5.20249,20.7347 5,20.467 5,19.9814 5,19.0103 Z"
         stroke="#000000"
         stroke-width="2"
         stroke-linecap="round"
         stroke-linejoin="round"
         id="path8036"
         style="fill:#00ff00;stroke:#ffffff;stroke-width:0;stroke-dasharray:none;stroke-opacity:0;paint-order:stroke markers fill" /></g></g></svg>
