<?xml version="1.0" encoding="UTF-8" standalone="no"?>
<!-- Created with Inkscape (http://www.inkscape.org/) -->

<svg
   width="80"
   height="80"
   viewBox="0 0 21.166666 21.166667"
   version="1.1"
   id="svg18643"
   inkscape:version="1.3.2 (091e20ef0f, 2023-11-25)"
   sodipodi:docname="run_preview.svg"
   xml:space="preserve"
   xmlns:inkscape="http://www.inkscape.org/namespaces/inkscape"
   xmlns:sodipodi="http://sodipodi.sourceforge.net/DTD/sodipodi-0.dtd"
   xmlns:xlink="http://www.w3.org/1999/xlink"
   xmlns="http://www.w3.org/2000/svg"
   xmlns:svg="http://www.w3.org/2000/svg"><sodipodi:namedview
     id="namedview18645"
     pagecolor="#ffffff"
     bordercolor="#666666"
     borderopacity="1.0"
     inkscape:showpageshadow="2"
     inkscape:pageopacity="0.0"
     inkscape:pagecheckerboard="0"
     inkscape:deskcolor="#d1d1d1"
     inkscape:document-units="mm"
     showgrid="false"
     inkscape:zoom="1.829812"
     inkscape:cx="-49.458633"
     inkscape:cy="48.365624"
     inkscape:window-width="1436"
     inkscape:window-height="1119"
     inkscape:window-x="26"
     inkscape:window-y="23"
     inkscape:window-maximized="0"
     inkscape:current-layer="layer1"
     inkscape:export-bgcolor="#ffffff00"><inkscape:grid
       type="xygrid"
       id="grid20216"
       originx="0"
       originy="0"
       spacingy="1"
       spacingx="1"
       units="mm"
       visible="false" /></sodipodi:namedview><defs
     id="defs18640"><linearGradient
       id="linearGradientStops"><stop
         offset="0"
         style="stop-color:#0515fe"
         id="stop57129" /><stop
         offset="1"
         style="stop-color:#2cab28"
         id="stop57131" /></linearGradient><linearGradient
       id="BlueGreen"
       gradientUnits="userSpaceOnUse"
       y1="20"
       x1="0"
       y2="180"
       x2="0"
       xlink:href="#linearGradientStops"
       gradientTransform="matrix(0.02642524,0,0,0.02642524,6.7644134,12.587324)" /></defs><g
     inkscape:label="Layer 1"
     inkscape:groupmode="layer"
     id="layer1"><g
       style="fill:#00ff00;stroke:#ffffff;stroke-width:0;stroke-dasharray:none;stroke-opacity:0;paint-order:stroke markers fill"
       id="g8045"
       transform="matrix(0.86931541,0,0,0.86931541,-3.0104312,-1.1580401)"><path
         d="M 5,4.98951 C 5,4.01835 5,3.53277 5.20249,3.2651 5.37889,3.03191 5.64852,2.88761 5.9404,2.87018 6.27544,2.85017 6.67946,3.11953 7.48752,3.65823 L 18.0031,10.6686 c 0.6677,0.4451 1.0015,0.6677 1.1178,0.9482 0.1018,0.2453 0.1018,0.5209 0,0.7662 -0.1163,0.2805 -0.4501,0.503 -1.1178,0.9482 L 7.48752,20.3415 C 6.67946,20.8802 6.27544,21.1496 5.9404,21.1296 5.64852,21.1122 5.37889,20.9679 5.20249,20.7347 5,20.467 5,19.9814 5,19.0103 Z"
         stroke="#000000"
         stroke-width="2"
         stroke-linecap="round"
         stroke-linejoin="round"
         id="path8036"
         style="fill:#00ff00;stroke:#ffffff;stroke-width:0;stroke-dasharray:none;stroke-opacity:0;paint-order:stroke markers fill" /></g><path
       d="m 16.982756,12.154366 c 1.109623,0.747126 2.065396,1.830404 2.790391,3.146567 l 0.0706,0.128561 -0.0706,0.127506 c -0.724995,1.316163 -1.681821,2.399441 -2.790391,3.146567 -1.082224,0.729211 -2.310925,1.140183 -3.613388,1.140183 -1.302465,0 -2.531163,-0.410972 -3.6123346,-1.139128 C 8.6463564,17.956441 7.6905841,16.873163 6.9655884,15.557 l -0.070602,-0.127506 0.070602,-0.128561 c 0.7249957,-1.316163 1.680768,-2.399441 2.790391,-3.146567 1.0822256,-0.728156 2.3109236,-1.139129 3.6133886,-1.139129 1.302463,0 2.530109,0.410973 3.613388,1.139129 z m -3.681884,1.197086 0.42994,0.04109 c -0.152797,0.229722 -0.243422,0.507919 -0.243422,0.808245 0,0.788221 0.617512,1.426808 1.380443,1.426808 0.244476,0 0.474199,-0.06533 0.673362,-0.181248 0.0032,0.04953 0.0052,0.09905 0.0052,0.149635 0,1.24029 -1.0053,2.24559 -2.245591,2.24559 -1.240291,0 -2.24559,-1.0053 -2.24559,-2.24559 0,-1.239238 1.005299,-2.244537 2.245589,-2.244537 z m 5.080241,2.078042 c -0.579575,-1.017946 -1.328808,-1.854642 -2.190795,-2.43527 -0.848286,-0.571145 -1.80722,-0.8936 -2.82095,-0.8936 -1.012677,0 -1.97161,0.322455 -2.819897,0.8936 -0.8619868,0.580628 -1.6112195,1.417324 -2.1918484,2.43527 0.5795753,1.017944 1.3298616,1.854641 2.1918484,2.434217 0.848287,0.571144 1.80722,0.893598 2.819897,0.893598 1.01373,0 1.97161,-0.322454 2.82095,-0.893598 0.861987,-0.579576 1.61122,-1.416273 2.190795,-2.434217 z"
       id="path1"
       style="stroke-width:0.105377;fill:#4787f5;fill-opacity:1" /></g></svg>
