<?xml version="1.0" encoding="UTF-8" standalone="no"?>
<!-- Created with Inkscape (http://www.inkscape.org/) -->

<svg
   width="80"
   height="80"
   viewBox="0 0 21.166666 21.166667"
   version="1.1"
   id="svg18643"
   inkscape:version="1.2.2 (b0a8486541, 2022-12-01)"
   sodipodi:docname="sum_blanks.svg"
   xml:space="preserve"
   xmlns:inkscape="http://www.inkscape.org/namespaces/inkscape"
   xmlns:sodipodi="http://sodipodi.sourceforge.net/DTD/sodipodi-0.dtd"
   xmlns="http://www.w3.org/2000/svg"
   xmlns:svg="http://www.w3.org/2000/svg"><sodipodi:namedview
     id="namedview18645"
     pagecolor="#ffffff"
     bordercolor="#666666"
     borderopacity="1.0"
     inkscape:showpageshadow="2"
     inkscape:pageopacity="0.0"
     inkscape:pagecheckerboard="0"
     inkscape:deskcolor="#d1d1d1"
     inkscape:document-units="mm"
     showgrid="false"
     inkscape:zoom="1.2938725"
     inkscape:cx="-106.27013"
     inkscape:cy="-32.847132"
     inkscape:window-width="1698"
     inkscape:window-height="1251"
     inkscape:window-x="2929"
     inkscape:window-y="219"
     inkscape:window-maximized="0"
     inkscape:current-layer="layer1"><inkscape:grid
       type="xygrid"
       id="grid20216" /></sodipodi:namedview><defs
     id="defs18640" /><g
     inkscape:label="Layer 1"
     inkscape:groupmode="layer"
     id="layer1"><path
       id="path42170"
       style="fill:none;stroke:#000000;stroke-width:1.5875;stroke-linecap:round;stroke-linejoin:round;stroke-dasharray:none;stroke-opacity:1"
       d="m 19.05,19.05 -1.262656,-1.262657 m 0.841771,-2.104417 c 0,1.627137 -1.319052,2.946188 -2.946189,2.946188 -1.627148,0 -2.946199,-1.319051 -2.946199,-2.946188 0,-1.627148 1.319051,-2.9462 2.946199,-2.9462 1.627137,0 2.946189,1.319052 2.946189,2.9462 z" /><path
       style="fill:none;stroke:#000000;stroke-width:1.5875;stroke-linecap:round;stroke-dasharray:none;stroke-opacity:1;paint-order:markers fill stroke"
       d="M 17.26967,10.142707 V 6.158318 c 0,-1.4143079 0,-2.1214619 -0.275259,-2.6616489 C 16.752318,3.0214996 16.366031,2.6351699 15.890851,2.3930668 15.3506,2.1178186 14.64351,2.1178186 13.22917,2.1178186 H 6.1583117 c -1.414308,0 -2.1214609,0 -2.661649,0.2752482 C 3.0214922,2.6351699 2.6351699,3.0214996 2.3930605,3.4966691 2.1178186,4.0368561 2.1178186,4.7440101 2.1178186,6.158318 v 7.070861 c 0,1.414339 0,2.121419 0.2752419,2.66167 0.2421094,0.47518 0.6284317,0.861467 1.1036022,1.10356 0.5401881,0.275259 1.247341,0.275259 2.661649,0.275259 h 3.8123949"
       id="path42149"
       sodipodi:nodetypes="cssssssssssssc" /><g
       style="fill:none;stroke-width:2;stroke-dasharray:none"
       id="g68447"
       transform="matrix(0.39687705,0,0,0.39687705,-12.125324,6.6159643)" /><path
       id="path71184"
       style="fill:none;stroke:#000000;stroke-width:0.79375;stroke-linecap:round;stroke-linejoin:round;stroke-dasharray:none;stroke-opacity:1"
       d="M 9.8231817,6.2919315 V 5.2335982 H 4.7584498 m 0,0 3.40165,3.4019724 -3.40165,3.4016484 m 5.0647319,-1.058331 v 1.058333 l -5.0647319,-2e-6 m 0,0 3.40165,-3.4016484 -3.40165,-3.4019724"
       sodipodi:nodetypes="cccccccccccc" /><g
       id="g73233"
       transform="matrix(1.089271,0,0,1.089271,-16.318819,2.1758199)"
       style="stroke-width:0.728698;stroke-dasharray:none"><path
         style="fill:none;stroke:#000000;stroke-width:0.728698;stroke-linecap:round;stroke-linejoin:round;stroke-dasharray:none;stroke-opacity:1"
         d="M 27.832142,4.7328109 25.437373,7.1275801"
         id="path71715" /><path
         style="fill:none;stroke:#000000;stroke-width:0.728698;stroke-linecap:round;stroke-linejoin:round;stroke-dasharray:none;stroke-opacity:1"
         d="m 25.437373,4.7328109 2.394769,2.3947692"
         id="path10360" /></g></g></svg>
