<?xml version="1.0" encoding="UTF-8" standalone="no"?>
<!-- Created with Inkscape (http://www.inkscape.org/) -->

<svg
   width="80"
   height="80"
   viewBox="0 0 21.166666 21.166667"
   version="1.1"
   id="svg18643"
   inkscape:version="1.2.2 (b0a8486541, 2022-12-01)"
   sodipodi:docname="view_stream2.svg"
   xml:space="preserve"
   xmlns:inkscape="http://www.inkscape.org/namespaces/inkscape"
   xmlns:sodipodi="http://sodipodi.sourceforge.net/DTD/sodipodi-0.dtd"
   xmlns="http://www.w3.org/2000/svg"
   xmlns:svg="http://www.w3.org/2000/svg"><sodipodi:namedview
     id="namedview18645"
     pagecolor="#ffffff"
     bordercolor="#666666"
     borderopacity="1.0"
     inkscape:showpageshadow="2"
     inkscape:pageopacity="0.0"
     inkscape:pagecheckerboard="0"
     inkscape:deskcolor="#d1d1d1"
     inkscape:document-units="mm"
     showgrid="true"
     inkscape:zoom="5.1754899"
     inkscape:cx="25.79466"
     inkscape:cy="46.469031"
     inkscape:window-width="1698"
     inkscape:window-height="1251"
     inkscape:window-x="1779"
     inkscape:window-y="106"
     inkscape:window-maximized="0"
     inkscape:current-layer="layer1"><inkscape:grid
       type="xygrid"
       id="grid20216" /></sodipodi:namedview><defs
     id="defs18640" /><g
     inkscape:label="Layer 1"
     inkscape:groupmode="layer"
     id="layer1"><g
       id="g82253"
       transform="translate(-0.33481532,-0.04271299)"><path
         style="fill:none;stroke:#000000;stroke-width:1.5875;stroke-linecap:round;stroke-linejoin:round;stroke-dasharray:none;stroke-opacity:1"
         d="m 18.300289,15.708166 c 0,1.635581 -1.325897,2.961477 -2.96148,2.961477 -1.635584,0 -2.961482,-1.325896 -2.961482,-2.961477 0,-1.635592 1.325898,-2.961487 2.961482,-2.961487 1.635583,0 2.96148,1.325895 2.96148,2.961487 z"
         id="path47115" /><path
         style="fill:none;stroke:#000000;stroke-width:1.5875;stroke-linecap:round;stroke-linejoin:round;stroke-dasharray:none;stroke-opacity:1"
         d="M 18.723357,19.092713 17.454152,17.823505"
         id="path47113" /></g><path
       style="fill:none;stroke:#000000;stroke-width:1.5875;stroke-linecap:round;stroke-linejoin:round;stroke-dasharray:none;stroke-opacity:1"
       d="M 16.317468,9.3099752 V 6.179268 c 0,-1.4216472 0,-2.1324708 -0.276687,-2.6754611 C 15.797433,3.0261717 15.40914,2.6378478 14.931495,2.3944778 14.388444,2.1178118 13.67769,2.1178118 12.256009,2.1178118 H 6.8407296 c -1.4216462,0 -2.1324697,0 -2.6754611,0.276666 C 3.6876322,2.6378478 3.2993062,3.0261717 3.0559394,3.5038069 2.7792702,4.0467972 2.7792702,4.7576208 2.7792702,6.179268 V 14.9791 c 0,1.421679 0,2.132428 0.2766692,2.675482 0.2433668,0.477646 0.6316928,0.865938 1.1093291,1.109287 0.5429914,0.276687 1.2538149,0.276687 2.6754611,0.276687 h 2.284571"
       id="path45999" /><g
       style="fill:none;stroke-width:1.87591;stroke-dasharray:none"
       id="g46745"
       transform="matrix(0.42312832,0,0,0.42312832,4.4708293,2.6795983)"><path
         d="M 2,6 C 2.6,6.5 3.2,7 4.5,7 7,7 7,5 9.5,5 c 1.3,0 1.9,0.5 2.5,1 0.6,0.5 1.2,1 2.5,1 2.5,0 2.5,-2 5,-2 1.3,0 1.9,0.5 2.5,1 M 2,18 c 0.6,0.5 1.2,1 2.5,1 2.5,0 2.5,-2 5,-2 1.3,0 1.9,0.5 2.5,1 0.6,0.5 1.2,1 2.5,1 2.5,0 2.5,-2 5,-2 1.3,0 1.9,0.5 2.5,1 M 2,12 c 0.6,0.5 1.2,1 2.5,1 2.5,0 2.5,-2 5,-2 1.3,0 1.9,0.5 2.5,1 0.6,0.5 1.2,1 2.5,1 2.5,0 2.5,-2 5,-2 1.3,0 1.9,0.5 2.5,1"
         stroke="#000000"
         stroke-width="2"
         stroke-linecap="round"
         stroke-linejoin="round"
         id="path46736"
         style="stroke-width:1.87591;stroke-dasharray:none" /></g></g></svg>
