<?xml version="1.0" encoding="UTF-8" standalone="no"?>
<!-- Created with Inkscape (http://www.inkscape.org/) -->

<svg
   width="80"
   height="80"
   viewBox="0 0 21.166666 21.166667"
   version="1.1"
   id="svg18643"
   inkscape:version="1.2.2 (b0a8486541, 2022-12-01)"
   sodipodi:docname="view_stream.svg"
   xmlns:inkscape="http://www.inkscape.org/namespaces/inkscape"
   xmlns:sodipodi="http://sodipodi.sourceforge.net/DTD/sodipodi-0.dtd"
   xmlns="http://www.w3.org/2000/svg"
   xmlns:svg="http://www.w3.org/2000/svg">
  <sodipodi:namedview
     id="namedview18645"
     pagecolor="#ffffff"
     bordercolor="#666666"
     borderopacity="1.0"
     inkscape:showpageshadow="2"
     inkscape:pageopacity="0.0"
     inkscape:pagecheckerboard="0"
     inkscape:deskcolor="#d1d1d1"
     inkscape:document-units="mm"
     showgrid="true"
     inkscape:zoom="3.659624"
     inkscape:cx="13.799232"
     inkscape:cy="35.386149"
     inkscape:window-width="1698"
     inkscape:window-height="1251"
     inkscape:window-x="2958"
     inkscape:window-y="263"
     inkscape:window-maximized="0"
     inkscape:current-layer="layer1">
    <inkscape:grid
       type="xygrid"
       id="grid20216" />
  </sodipodi:namedview>
  <defs
     id="defs18640" />
  <g
     inkscape:label="Layer 1"
     inkscape:groupmode="layer"
     id="layer1">
    <path
       id="path42170-5-3-7-5"
       style="fill:none;stroke:#000000;stroke-width:1.5875;stroke-linecap:round;stroke-linejoin:round;stroke-dasharray:none;stroke-opacity:1"
       d="m 17.732062,18.52004 -1.190464,-1.19046 m 0.79364,-1.98409 c 0,1.5341 -1.24363,2.77773 -2.77773,2.77773 -1.53411,0 -2.77774,-1.24363 -2.77774,-2.77773 0,-1.53411 1.24363,-2.77774 2.77774,-2.77774 1.5341,0 2.77773,1.24363 2.77773,2.77774 z" />
    <g
       style="fill:none;stroke-width:1.5;stroke-dasharray:none"
       id="g13066"
       transform="matrix(0.52916667,0,0,0.52916667,1.9793967,0.06140417)">
      <path
         d="M 2,6 C 2.6,6.5 3.2,7 4.5,7 7,7 7,5 9.5,5 c 1.3,0 1.9,0.5 2.5,1 0.6,0.5 1.2,1 2.5,1 2.5,0 2.5,-2 5,-2 1.3,0 1.9,0.5 2.5,1 M 2,18 c 0.6,0.5 1.2,1 2.5,1 2.5,0 2.5,-2 5,-2 1.3,0 1.9,0.5 2.5,1 0.6,0.5 1.2,1 2.5,1 2.5,0 2.5,-2 5,-2 1.3,0 1.9,0.5 2.5,1 M 2,12 c 0.6,0.5 1.2,1 2.5,1 2.5,0 2.5,-2 5,-2 1.3,0 1.9,0.5 2.5,1 0.6,0.5 1.2,1 2.5,1 2.5,0 2.5,-2 5,-2 1.3,0 1.9,0.5 2.5,1"
         stroke="#000000"
         stroke-width="2"
         stroke-linecap="round"
         stroke-linejoin="round"
         id="path13057"
         style="stroke-width:1.5;stroke-dasharray:none" />
    </g>
  </g>
</svg>
